<?xml version="1.0"?>
<svg xmlns="http://www.w3.org/2000/svg" xmlns:xlink="http://www.w3.org/1999/xlink" version="1.1" xml:space="preserve">
  <defs>

    <symbol id="loader" width="100%" height="100%" viewBox="22 22 44 44">
      <circle cx="44" cy="44" r="20.2" fill="none" stroke="currentColor" stroke-width="4"></circle>
    </symbol>

    <symbol id="burger" width="100%" height="100%" viewBox="0 0 48 48">
      <path d="M41,14H7a2,2,0,0,1,0-4H41A2,2,0,0,1,41,14Z" fill="currentColor"/>
      <path d="M41,26H7a2,2,0,0,1,0-4H41A2,2,0,0,1,41,26Z" fill="currentColor"/>
      <path d="M41,38H7a2,2,0,0,1,0-4H41A2,2,0,0,1,41,38Z" fill="currentColor"/>
    </symbol>

    <symbol id="close" width="100%" height="100%" viewBox="0 0 16 16">
      <path d="M1 15L15 1M1 1L15 15" stroke="currentColor" stroke-width="2" stroke-linecap="round" stroke-linejoin="round"/>
    </symbol>

    <symbol id="success" width="100%" height="100%" viewBox="0 0 68 68">
      <path fill-rule="evenodd" clip-rule="evenodd" d="M34 68C52.7777 68 68 52.7777 68 34C68 15.2223 52.7777 0 34 0C15.2223 0 0 15.2223 0 34C0 52.7777 15.2223 68 34 68ZM49.7552 28.5052C51.4149 26.8455 51.4149 24.1545 49.7552 22.4948C48.0955 20.8351 45.4045 20.8351 43.7448 22.4948L29.75 36.4896L24.2552 30.9948C22.5955 29.3351 19.9045 29.3351 18.2448 30.9948C16.5851 32.6545 16.5851 35.3455 18.2448 37.0052L26.7448 45.5052C28.4045 47.1649 31.0955 47.1649 32.7552 45.5052L49.7552 28.5052Z" fill="currentColor"/>
    </symbol>

    <symbol id="email" width="100%" height="100%" viewBox="0 0 42 42">
      <path fill-rule="evenodd" clip-rule="evenodd" d="M5.26095 12.9999C5.422 13.0015 5.58496 13.0421 5.73564 13.1258L21 21.606L36.2644 13.1258C36.415 13.0421 36.578 13.0015 36.739 12.9999C36.7028 11.2946 36.5463 10.3036 35.8713 9.62868C34.9926 8.75 33.5784 8.75 30.75 8.75H11.25C8.42157 8.75 7.00736 8.75 6.12868 9.62868C5.45371 10.3036 5.29723 11.2946 5.26095 12.9999ZM36.75 15.144L21.9713 23.3544C21.3672 23.6899 20.6328 23.6899 20.0287 23.3544L5.25 15.144V27.25C5.25 30.0784 5.25 31.4926 6.12868 32.3713C7.00736 33.25 8.42157 33.25 11.25 33.25H30.75C33.5784 33.25 34.9926 33.25 35.8713 32.3713C36.75 31.4926 36.75 30.0784 36.75 27.25V15.144Z" fill="currentColor"/>
    </symbol>

    <symbol id="phone" width="100%" height="100%" viewBox="0 0 42 42">
      <path d="M9.93934 5.81066L11.0126 4.73744C11.696 4.05402 12.804 4.05402 13.4874 4.73744L18.0126 9.26256C18.696 9.94598 18.696 11.054 18.0126 11.7374L14.8758 14.8742C14.3528 15.3972 14.2231 16.1963 14.5539 16.8579C16.4663 20.6825 19.5675 23.7837 23.3921 25.6961C24.0537 26.0269 24.8528 25.8972 25.3758 25.3742L28.5126 22.2374C29.196 21.554 30.304 21.554 30.9874 22.2374L35.5126 26.7626C36.196 27.446 36.196 28.554 35.5126 29.2374L34.4393 30.3107C30.7445 34.0055 24.895 34.4212 20.7147 31.286L18.6 29.7C15.5488 27.4116 12.8384 24.7012 10.55 21.65L8.96396 19.5353C5.82876 15.355 6.24448 9.50552 9.93934 5.81066Z" fill="currentColor"/>
    </symbol>

    <symbol id="user" width="100%" height="100%" viewBox="0 0 24 24">
      <circle cx="9" cy="9" r="2" fill="var(--color-none)" stroke="currentColor" stroke-width="1.5"/>
      <path d="M13 15C13 16.1046 13 17 9 17C5 17 5 16.1046 5 15C5 13.8954 6.79086 13 9 13C11.2091 13 13 13.8954 13 15Z" fill="var(--color-none)" stroke="currentColor" stroke-width="1.5"/>
      <path d="M22 12C22 15.7712 22 17.6569 20.8284 18.8284C19.6569 20 17.7712 20 14 20H10C6.22876 20 4.34315 20 3.17157 18.8284C2 17.6569 2 15.7712 2 12C2 8.22876 2 6.34315 3.17157 5.17157C4.34315 4 6.22876 4 10 4H14C17.7712 4 19.6569 4 20.8284 5.17157C21.298 5.64118 21.5794 6.2255 21.748 7" fill="var(--color-none)" stroke="currentColor" stroke-width="1.5" stroke-linecap="round"/>
      <path d="M19 12H15" fill="var(--color-none)" stroke="currentColor" stroke-width="1.5" stroke-linecap="round"/>
      <path d="M19 9H14" fill="var(--color-none)" stroke="currentColor" stroke-width="1.5" stroke-linecap="round"/>
      <path d="M19 15H16" fill="var(--color-none)" stroke="currentColor" stroke-width="1.5" stroke-linecap="round"/>
    </symbol>

    <symbol id="geo" width="100%" height="100%" viewBox="0 0 24 24">
      <path d="M12 14C13.6569 14 15 12.6569 15 11C15 9.34315 13.6569 8 12 8C10.3431 8 9 9.34315 9 11C9 12.6569 10.3431 14 12 14Z" fill="var(--color-none)" stroke="currentColor" stroke-width="2" stroke-linecap="round" stroke-linejoin="round"/>
      <path d="M17.657 16.657L13.414 20.9C13.039 21.2746 12.5306 21.4851 12.0005 21.4851C11.4704 21.4851 10.962 21.2746 10.587 20.9L6.343 16.657C5.22422 15.5382 4.46234 14.1127 4.15369 12.5609C3.84504 11.009 4.00349 9.40053 4.60901 7.93874C5.21452 6.47696 6.2399 5.22755 7.55548 4.34852C8.87107 3.46949 10.4178 3.00031 12 3.00031C13.5822 3.00031 15.1289 3.46949 16.4445 4.34852C17.7601 5.22755 18.7855 6.47696 19.391 7.93874C19.9965 9.40053 20.155 11.009 19.8463 12.5609C19.5377 14.1127 18.7758 15.5382 17.657 16.657V16.657Z" fill="var(--color-none)" stroke="currentColor" stroke-width="2" stroke-linecap="round" stroke-linejoin="round"/>
    </symbol>

    <symbol id="tel" width="100%" height="100%" viewBox="0 0 24 24">
      <path d="M5 4H9L11 9L8.5 10.5C9.57096 12.6715 11.3285 14.429 13.5 15.5L15 13L20 15V19C20 19.5304 19.7893 20.0391 19.4142 20.4142C19.0391 20.7893 18.5304 21 18 21C14.0993 20.763 10.4202 19.1065 7.65683 16.3432C4.8935 13.5798 3.23705 9.90074 3 6C3 5.46957 3.21071 4.96086 3.58579 4.58579C3.96086 4.21071 4.46957 4 5 4" fill="var(--color-none)" stroke="currentColor" stroke-width="2" stroke-linecap="round" stroke-linejoin="round"/>
      <path d="M15 7C15.5304 7 16.0391 7.21071 16.4142 7.58579C16.7893 7.96086 17 8.46957 17 9" fill="var(--color-none)" stroke="currentColor" stroke-width="2" stroke-linecap="round" stroke-linejoin="round"/>
      <path d="M15 3C16.5913 3 18.1174 3.63214 19.2426 4.75736C20.3679 5.88258 21 7.4087 21 9" fill="var(--color-none)" stroke="currentColor" stroke-width="2" stroke-linecap="round" stroke-linejoin="round"/>
    </symbol>

    <symbol id="mail" width="100%" height="100%" viewBox="0 0 24 24">
      <path d="M19 5H5C3.89543 5 3 5.89543 3 7V17C3 18.1046 3.89543 19 5 19H19C20.1046 19 21 18.1046 21 17V7C21 5.89543 20.1046 5 19 5Z" fill="var(--color-none)" stroke="currentColor" stroke-width="2" stroke-linecap="round" stroke-linejoin="round"/>
      <path d="M3 7L12 13L21 7" fill="var(--color-none)" stroke="currentColor" stroke-width="2" stroke-linecap="round" stroke-linejoin="round"/>
    </symbol>

  </defs>
</svg>