<?xml version="1.0" standalone="no"?>
<!DOCTYPE svg PUBLIC "-//W3C//DTD SVG 20010904//EN"
 "http://www.w3.org/TR/2001/REC-SVG-20010904/DTD/svg10.dtd">
<svg version="1.0" xmlns="http://www.w3.org/2000/svg"
 width="260.000000pt" height="260.000000pt" viewBox="0 0 260.000000 260.000000"
 preserveAspectRatio="xMidYMid meet">
<metadata>
Created by potrace 1.14, written by Peter Selinger 2001-2017
</metadata>
<g transform="translate(0.000000,260.000000) scale(0.100000,-0.100000)"
fill="#000000" stroke="none">
<path d="M1500 1609 c-243 -20 -680 -107 -840 -167 l-45 -17 70 -5 c67 -5 70
-6 70 -30 0 -24 -3 -25 -65 -28 -76 -4 -90 -13 -90 -58 0 -35 20 -54 59 -54
17 0 21 6 21 30 0 24 5 31 27 36 43 11 58 -6 54 -62 -1 -27 -5 -51 -7 -54 -11
-10 -133 -11 -172 -1 -31 9 -46 19 -52 37 -13 33 -13 106 0 138 5 14 7 26 5
26 -3 0 -46 -19 -97 -41 -341 -154 -363 -304 -55 -371 191 -41 612 -34 954 18
110 16 364 68 433 89 151 45 280 88 280 93 0 4 -32 5 -71 4 -122 -6 -119 -9
-119 112 0 85 3 105 16 110 9 3 56 6 105 6 l89 0 0 -30 0 -30 -65 0 c-51 0
-65 -3 -65 -15 0 -12 14 -15 65 -15 63 0 65 -1 65 -25 0 -24 -2 -25 -65 -25
-50 0 -65 -3 -65 -15 0 -11 16 -15 68 -17 62 -3 67 -5 66 -25 -1 -33 16 -29
126 27 105 55 181 114 206 162 46 89 -58 163 -270 193 -110 16 -471 18 -636 4z
m611 -20 c180 -27 289 -78 289 -137 0 -30 -48 -91 -92 -116 l-33 -20 38 42
c62 70 47 128 -45 166 -59 25 -255 56 -378 60 -114 4 -114 4 -25 -4 118 -10
287 -37 351 -55 122 -35 154 -92 88 -155 l-36 -35 16 32 c24 48 20 79 -11 101
-73 50 -197 74 -463 91 -233 15 -300 22 -300 32 0 20 467 19 601 -2z m-1101
-199 c0 -29 0 -29 -65 -32 -87 -4 -88 -22 -2 -26 64 -3 68 -4 65 -25 -3 -20
-10 -22 -71 -25 -91 -4 -87 -26 6 -30 l67 -3 0 -30 0 -31 -100 4 c-76 2 -103
7 -110 18 -5 8 -10 52 -10 97 0 109 4 113 126 113 l94 0 0 -30z m171 -32 c29
-35 56 -64 60 -66 5 -2 9 26 9 62 l0 66 30 0 30 0 0 -105 c0 -93 -2 -105 -19
-115 -37 -19 -63 -11 -103 33 -21 23 -47 54 -56 70 -9 15 -20 27 -24 27 -4 0
-8 -30 -10 -67 -3 -65 -4 -68 -28 -68 -25 0 -25 1 -28 99 -3 111 3 126 54 126
29 0 40 -9 85 -62z m397 35 c-3 -27 -5 -28 -68 -31 -46 -2 -69 -7 -77 -19 -29
-39 -4 -93 42 -93 18 0 24 6 27 26 4 34 27 49 61 40 24 -6 27 -11 27 -49 0
-68 -7 -72 -111 -72 -87 0 -92 1 -115 28 -19 22 -24 39 -23 80 1 100 23 116
152 117 l88 0 -3 -27z m256 4 c9 -16 1 -28 -59 -83 l-70 -64 61 0 c58 0 62 -2
66 -25 3 -13 3 -27 0 -30 -3 -3 -48 -5 -99 -5 -153 0 -169 26 -71 114 l61 56
-56 0 c-57 0 -57 0 -57 30 l0 31 106 -3 c91 -3 109 -6 118 -21z m-1558 -167
c-38 -43 -47 -89 -23 -121 40 -52 272 -111 427 -108 61 2 59 2 -30 10 -52 5
-122 15 -155 23 -33 8 -84 20 -112 26 -67 15 -133 62 -133 94 0 24 35 76 51
76 5 0 2 -14 -6 -31 -15 -28 -15 -33 -1 -55 46 -69 248 -112 635 -134 95 -5
176 -11 178 -14 23 -23 -539 -17 -668 7 -159 31 -249 80 -249 136 0 33 11 48
68 95 57 47 63 46 18 -4z"/>
<path d="M808 993 c34 -2 88 -2 120 0 31 2 3 3 -63 3 -66 0 -92 -1 -57 -3z"/>
</g>
</svg>
